# xmcd
#
# Track frame offsets:
#	150
#	15550
#	34144
#	58065
#	73135
#	97348
#	117609
#	141045
#	159165
#	170419
#
# Disc length: 2544 seconds
#
# Revision: 1
# Processed by: cddbd v1.5.1PL0 Copyright (c) Steve Scherf et al.
# Submitted via: EasyCDDAExtractor 8.2.1.1
#
DISCID=8c09ee0a
DTITLE=DJURA MORNAR - Letnja terasa
DYEAR=2005
DGENRE=
TTITLE0=Nasmejana vila
TTITLE1=Kontesa
TTITLE2=Mornar kao ja
TTITLE3=Bella Italia
TTITLE4=Boje sna
TTITLE5=Moja si ljubav, moja si bol
TTITLE6=Muzika moja
TTITLE7=Ne mogu da zivim bez tebe
TTITLE8=Mala Marina
TTITLE9=Ja u ljubav nasu verujem
EXTD=
EXTT0=
EXTT1=
EXTT2=
EXTT3=
EXTT4=
EXTT5=
EXTT6=
EXTT7=
EXTT8=
EXTT9=
PLAYORDER=
